<svg id="cookie" xmlns="http://www.w3.org/2000/svg" width="54.48" height="55.637" viewBox="0 0 54.48 55.637">
  <g id="Grupo_25" data-name="Grupo 25" transform="translate(42.515 38.135)">
    <g id="Grupo_24" data-name="Grupo 24">
      <path id="Caminho_1059" data-name="Caminho 1059" d="M402.545,350.939a5.98,5.98,0,1,0,5.98,5.98A5.987,5.987,0,0,0,402.545,350.939Zm0,8.7a2.72,2.72,0,1,1,2.72-2.72A2.723,2.723,0,0,1,402.545,359.639Z" transform="translate(-396.565 -350.939)" fill="#eb640f"/>
    </g>
  </g>
  <g id="Grupo_27" data-name="Grupo 27" transform="translate(0 2.72)">
    <g id="Grupo_26" data-name="Grupo 26">
      <path id="Caminho_1060" data-name="Caminho 1060" d="M9.774,25.03a4.452,4.452,0,1,0,4.452,4.452A4.457,4.457,0,0,0,9.774,25.03Zm0,5.644a1.192,1.192,0,1,1,1.192-1.192A1.193,1.193,0,0,1,9.774,30.674Z" transform="translate(-5.322 -25.03)" fill="#eb640f"/>
    </g>
  </g>
  <g id="Grupo_29" data-name="Grupo 29" transform="translate(22.929 8.364)">
    <g id="Grupo_28" data-name="Grupo 28">
      <path id="Caminho_1061" data-name="Caminho 1061" d="M222.842,76.97a6.52,6.52,0,1,0,6.52,6.52A6.527,6.527,0,0,0,222.842,76.97Zm0,9.78a3.26,3.26,0,1,1,3.26-3.26A3.264,3.264,0,0,1,222.842,86.75Z" transform="translate(-216.322 -76.97)" fill="#eb640f"/>
    </g>
  </g>
  <g id="Grupo_31" data-name="Grupo 31">
    <g id="Grupo_30" data-name="Grupo 30">
      <path id="Caminho_1062" data-name="Caminho 1062" d="M59.73,19.621A27.832,27.832,0,0,0,19.991,3.3a1.63,1.63,0,0,0-.79,1.9,6.893,6.893,0,0,1-6.686,8.859,1.63,1.63,0,0,0-1.65,1.63c0,.006,0,.011,0,.017a8.433,8.433,0,0,1-4.48,7.443,1.63,1.63,0,0,0-.852,1.24,28.171,28.171,0,0,0-.21,3.428A27.824,27.824,0,0,0,47.075,51.9a1.63,1.63,0,0,0,.542-2.309,11.781,11.781,0,0,1,7.5-18.031,1.63,1.63,0,0,0,1.272-1.943,8.432,8.432,0,0,1,2.827-8.267A1.63,1.63,0,0,0,59.73,19.621Zm-6.754,9.126a15.046,15.046,0,0,0-8.971,21.1A24.566,24.566,0,0,1,8.582,27.819c0-.742.034-1.492.1-2.236a11.68,11.68,0,0,0,5.341-8.357,10.048,10.048,0,0,0,6.708-3.986,10.053,10.053,0,0,0,1.9-7.621,24.575,24.575,0,0,1,33.665,14A11.672,11.672,0,0,0,52.976,28.747Z" transform="translate(-5.322)" fill="#eb640f"/>
    </g>
  </g>
  <g id="Grupo_33" data-name="Grupo 33" transform="translate(11.39 33.548)">
    <g id="Grupo_32" data-name="Grupo 32">
      <path id="Caminho_1063" data-name="Caminho 1063" d="M115.03,308.726a4.89,4.89,0,1,0,4.89,4.89A4.9,4.9,0,0,0,115.03,308.726Zm0,6.52a1.63,1.63,0,1,1,1.63-1.63A1.632,1.632,0,0,1,115.03,315.246Z" transform="translate(-110.14 -308.726)" fill="#eb640f"/>
    </g>
  </g>
  <g id="Grupo_35" data-name="Grupo 35" transform="translate(27.819 26.189)">
    <g id="Grupo_34" data-name="Grupo 34">
      <path id="Caminho_1064" data-name="Caminho 1064" d="M266.212,241a4.89,4.89,0,1,0,4.89,4.89A4.9,4.9,0,0,0,266.212,241Zm0,6.52a1.63,1.63,0,1,1,1.63-1.63A1.632,1.632,0,0,1,266.212,247.52Z" transform="translate(-261.322 -241)" fill="#eb640f"/>
    </g>
  </g>
  <g id="Grupo_37" data-name="Grupo 37" transform="translate(25.645 41.155)">
    <g id="Grupo_36" data-name="Grupo 36">
      <circle id="Elipse_15" data-name="Elipse 15" cx="2.173" cy="2.173" r="2.173" fill="#eb640f"/>
    </g>
  </g>
  <g id="Grupo_39" data-name="Grupo 39" transform="translate(11.39 23.472)">
    <g id="Grupo_38" data-name="Grupo 38">
      <circle id="Elipse_16" data-name="Elipse 16" cx="2.173" cy="2.173" r="2.173" fill="#eb640f"/>
    </g>
  </g>
</svg>
