<svg xmlns="http://www.w3.org/2000/svg" width="324.688" height="101.221" viewBox="0 0 324.688 101.221">
  <g id="Grupo_6038" data-name="Grupo 6038" transform="translate(-70.866 -75.455)">
    <g id="Grupo_6023" data-name="Grupo 6023" transform="translate(147.708 125.813)">
      <path id="Caminho_17094" data-name="Caminho 17094" d="M183.953,154v.065H179.37V154c1.142-.1,1.794-.456,1.223-1.891l-.326-.816h-6.375l-.359.816c-.6,1.4.049,1.7.963,1.891v.065h-3V154c.685-.2,1.076-.506,1.679-1.908l3.62-8.348-.032-.359.26-.179,1.517-.995a3.253,3.253,0,0,0,.359,1.11l3.441,8.69C182.925,153.511,183.218,153.9,183.953,154Zm-3.8-3-2.951-7.37-3.2,7.37Z" transform="translate(-171.495 -141.593)" fill="#eb640f"/>
      <path id="Caminho_17095" data-name="Caminho 17095" d="M197.773,154.021v.049l-2.544-.506a.016.016,0,0,0,.017-.017,4.113,4.113,0,0,1-1.94.441,3.617,3.617,0,0,1-3.93-3.75c0-2.348,1.663-4.37,5.054-4.37a7.123,7.123,0,0,1,1.207.1V143.13c0-.652-.31-.572-1.32-.261v-.1l2.9-1.37-.082.636v10.5C197.137,153.418,197.283,153.7,197.773,154.021Zm-3.523-.489a1.671,1.671,0,0,0,1.354-.572,6.318,6.318,0,0,0,.033-.635v-5.25a2.653,2.653,0,0,0-2.022-.9c-1.679,0-2.657,1.255-2.657,3.18C190.957,151.69,192.375,153.533,194.25,153.533Z" transform="translate(-175.722 -141.401)" fill="#eb640f"/>
      <path id="Caminho_17096" data-name="Caminho 17096" d="M210.654,147.38v.065c-.522.2-.9.506-1.517,1.908l-2.69,6.1h-.082l-3.261-6.961-.6-1.109h3.39v.065c-.815.1-1.5.489-.848,1.891L207,153.542l1.826-4.207c.6-1.4-.065-1.694-.652-1.891v-.065Z" transform="translate(-178.825 -142.814)" fill="#eb640f"/>
      <path id="Caminho_17097" data-name="Caminho 17097" d="M222.957,151.312a4.226,4.226,0,1,1-4.223-4.061A3.965,3.965,0,0,1,222.957,151.312Zm-1.533,1.059c0-2.25-1.3-4.842-3.326-4.842-1.288,0-2.055,1.026-2.055,2.722,0,2.25,1.305,4.844,3.327,4.844C220.657,155.095,221.424,154.067,221.424,152.371Z" transform="translate(-181.663 -142.784)" fill="#eb640f"/>
      <path id="Caminho_17098" data-name="Caminho 17098" d="M236.094,147.855V156.1c0,.8-2.837,2.56-4.483,2.56a2.946,2.946,0,0,1-2.56-1.533l1.549-.456a2.245,2.245,0,0,0,2.169,1.434,1.933,1.933,0,0,0,1.826-2.021v-1.4a3.815,3.815,0,0,1-2.331.685,3.617,3.617,0,0,1-3.93-3.75c0-2.348,1.663-4.37,5.054-4.37A5.8,5.8,0,0,1,236.094,147.855Zm-1.5,6.424v-5.82a2.653,2.653,0,0,0-2.022-.9c-1.679,0-2.657,1.255-2.657,3.18,0,2.331,1.419,4.157,3.293,4.157A1.614,1.614,0,0,0,234.594,154.279Z" transform="translate(-184.931 -142.784)" fill="#eb640f"/>
      <path id="Caminho_17099" data-name="Caminho 17099" d="M250.12,155.4v.049l-2.544-.506a.016.016,0,0,0,.017-.017,4.112,4.112,0,0,1-1.94.441,3.618,3.618,0,0,1-3.93-3.75c0-2.348,1.664-4.37,5.054-4.37a5.8,5.8,0,0,1,2.707.6v6.065C249.484,154.8,249.631,155.078,250.12,155.4Zm-3.523-.489a1.671,1.671,0,0,0,1.354-.572,6.313,6.313,0,0,0,.033-.635v-5.25a2.654,2.654,0,0,0-2.022-.9c-1.679,0-2.657,1.255-2.657,3.18C243.305,153.073,244.724,154.915,246.6,154.915Z" transform="translate(-188.096 -142.784)" fill="#eb640f"/>
      <path id="Caminho_17100" data-name="Caminho 17100" d="M263.713,154.021v.049l-2.544-.506a.016.016,0,0,0,.017-.017,4.113,4.113,0,0,1-1.94.441,3.618,3.618,0,0,1-3.93-3.75c0-2.348,1.663-4.37,5.054-4.37a7.114,7.114,0,0,1,1.207.1V143.13c0-.652-.31-.572-1.32-.261v-.1l2.9-1.37-.082.636v10.5C263.077,153.418,263.224,153.7,263.713,154.021Zm-3.523-.489a1.672,1.672,0,0,0,1.354-.572c.015-.163.032-.374.032-.635v-5.25a2.651,2.651,0,0,0-2.022-.9c-1.678,0-2.657,1.255-2.657,3.18C256.9,151.69,258.315,153.533,260.191,153.533Z" transform="translate(-191.309 -141.401)" fill="#eb640f"/>
      <path id="Caminho_17101" data-name="Caminho 17101" d="M277.3,151.312a4.226,4.226,0,1,1-4.222-4.061A3.965,3.965,0,0,1,277.3,151.312Zm-1.532,1.059c0-2.25-1.305-4.842-3.327-4.842-1.287,0-2.054,1.026-2.054,2.722,0,2.25,1.3,4.844,3.326,4.844C275,155.095,275.769,154.067,275.769,152.371Z" transform="translate(-194.509 -142.784)" fill="#eb640f"/>
      <path id="Caminho_17102" data-name="Caminho 17102" d="M282.459,154.41l.913-1.517h.033c-.017,1.418,1.532,2.234,2.8,2.234,1.126,0,1.5-.637,1.5-1.4,0-1.076-.765-1.5-2.037-1.7-2.511-.391-3.016-1.6-3.016-2.478,0-1.452,1.369-2.3,3.1-2.3a4.9,4.9,0,0,1,2.967.93l-1.027,1.533h-.032a2.363,2.363,0,0,0-2.495-2.218,1.246,1.246,0,0,0-1.37,1.353c0,1.158,1.126,1.484,2.152,1.646,2.463.391,2.9,1.5,2.9,2.365,0,1.451-1.24,2.511-3.262,2.511A5.258,5.258,0,0,1,282.459,154.41Z" transform="translate(-197.725 -142.784)" fill="#eb640f"/>
    </g>
    <g id="Grupo_6024" data-name="Grupo 6024" transform="translate(252.886 126.572)">
      <path id="Caminho_17103" data-name="Caminho 17103" d="M320.589,153.953V154h-2.951v-.277l-3.18-4.4h-2.217v3.751c0,.587.57.767,1.239.847V154h-4.142v-.082c.669-.08,1.239-.26,1.239-.847v-9.555c0-.586-.57-.766-1.239-.848v-.082h5.723c2.625,0,4.305.995,4.305,3,0,1.7-1.223,3.033-3.229,3.522l2.022,2.739A5.678,5.678,0,0,0,320.589,153.953Zm-5.789-4.924c2.022,0,2.935-.57,2.935-2.837,0-1.631-.489-3.31-3.555-3.31h-1.94v5.788A9.154,9.154,0,0,0,314.8,149.029Z" transform="translate(-309.256 -142.442)" fill="#00314b"/>
      <path id="Caminho_17104" data-name="Caminho 17104" d="M333.755,151.112a4.226,4.226,0,1,1-4.223-4.061A3.965,3.965,0,0,1,333.755,151.112Zm-1.533,1.059c0-2.25-1.305-4.842-3.327-4.842-1.287,0-2.054,1.026-2.054,2.722,0,2.251,1.305,4.844,3.326,4.844C331.456,154.895,332.223,153.867,332.223,152.171Z" transform="translate(-313.032 -143.496)" fill="#00314b"/>
      <path id="Caminho_17105" data-name="Caminho 17105" d="M350.315,153.932v-3.881c0-1.858-.815-2.3-1.565-2.3a4.334,4.334,0,0,0-2.446,1.239,6.327,6.327,0,0,1,.081,1.027v3.522c0,.88.147,1.19.636,1.517h-2.234l.1-1.126v-3.881c0-1.858-.815-2.3-1.566-2.3a4.219,4.219,0,0,0-2.363,1.174v4.615c0,.88.147,1.19.635,1.517h-2.233l.1-1.126v-6.261a2.562,2.562,0,0,0-1-.294v-.065l2.577-.244-.082,1.207v.292a5.847,5.847,0,0,1,3.261-1.517,1.953,1.953,0,0,1,2.021,1.648v-.017c.881-.653,2.039-1.631,3.409-1.631.977,0,2.168.506,2.168,2.968v3.522c0,.88.147,1.19.637,1.517h-2.234Z" transform="translate(-316.14 -143.496)" fill="#00314b"/>
      <path id="Caminho_17106" data-name="Caminho 17106" d="M366.862,153.491a3.927,3.927,0,0,1-3.49,1.68,3.822,3.822,0,0,1-4.124-3.88,4.284,4.284,0,0,1,4.516-4.24c3.391,0,3.767,3.474,1.728,3.474h-4.663c.016,2.234,1.287,3.93,3.245,3.93a3.712,3.712,0,0,0,2.707-1.028Zm-6.033-3.228,4.01-.048c.995-.017.457-2.87-1.662-2.87C361.856,147.345,360.911,148.421,360.829,150.264Z" transform="translate(-321.054 -143.496)" fill="#00314b"/>
      <path id="Caminho_17107" data-name="Caminho 17107" d="M372.056,152.832v-6.261a2.557,2.557,0,0,0-.995-.294v-.065l2.576-.244-.082,1.207v5.266c0,.88.147,1.19.635,1.517h-2.233Zm-.294-9.506a.938.938,0,1,1,.946.946A.924.924,0,0,1,371.762,143.325Z" transform="translate(-323.847 -142.396)" fill="#00314b"/>
      <path id="Caminho_17108" data-name="Caminho 17108" d="M383.075,147.269l-1.4,2.282h-.066c.441-1.091.05-1.565-.473-1.565-.832,0-1.353,1.044-1.517,2.185v3.375c0,.88.147,1.19.635,1.517h-2.217l.082-1.126v-6.261a2.553,2.553,0,0,0-.995-.294v-.065l2.576-.244-.082,1.207v.521h.212a2.516,2.516,0,0,1,2.38-1.728A1.889,1.889,0,0,1,383.075,147.269Z" transform="translate(-325.279 -143.502)" fill="#00314b"/>
      <path id="Caminho_17109" data-name="Caminho 17109" d="M394.912,151.112a4.226,4.226,0,1,1-4.222-4.061A3.965,3.965,0,0,1,394.912,151.112Zm-1.532,1.059c0-2.25-1.3-4.842-3.327-4.842-1.287,0-2.054,1.026-2.054,2.722,0,2.251,1.3,4.844,3.326,4.844C392.613,154.895,393.38,153.867,393.38,152.171Z" transform="translate(-327.488 -143.496)" fill="#00314b"/>
      <path id="Caminho_17110" data-name="Caminho 17110" d="M415.862,143.518v9.555c0,.587.57.767,1.239.847V154h-4.142v-.082c.669-.08,1.239-.26,1.239-.847v-4.566h-6.179v4.566c0,.587.57.767,1.239.847V154h-4.141v-.082c.669-.08,1.239-.26,1.239-.847v-9.555c0-.586-.57-.766-1.239-.848v-.082h4.141v.082c-.668.082-1.239.261-1.239.848v4.712H414.2v-4.712c0-.586-.57-.766-1.239-.848v-.082H417.1v.082C416.432,142.752,415.862,142.932,415.862,143.518Z" transform="translate(-331.897 -142.442)" fill="#00314b"/>
      <path id="Caminho_17111" data-name="Caminho 17111" d="M430.573,153.491a3.926,3.926,0,0,1-3.489,1.68,3.823,3.823,0,0,1-4.125-3.88,4.284,4.284,0,0,1,4.516-4.24c3.392,0,3.767,3.474,1.728,3.474H424.54c.016,2.234,1.288,3.93,3.245,3.93a3.712,3.712,0,0,0,2.707-1.028Zm-6.033-3.228,4.011-.048c.995-.017.457-2.87-1.662-2.87C425.568,147.345,424.622,148.421,424.54,150.264Z" transform="translate(-336.114 -143.496)" fill="#00314b"/>
      <path id="Caminho_17112" data-name="Caminho 17112" d="M440.725,147.269l-1.4,2.282h-.065c.441-1.091.049-1.565-.473-1.565-.832,0-1.352,1.044-1.517,2.185v3.375c0,.88.147,1.19.636,1.517h-2.218l.082-1.126v-6.261a2.553,2.553,0,0,0-.995-.294v-.065l2.577-.244-.082,1.207v.521h.212a2.516,2.516,0,0,1,2.381-1.728A1.888,1.888,0,0,1,440.725,147.269Z" transform="translate(-338.907 -143.502)" fill="#00314b"/>
      <path id="Caminho_17113" data-name="Caminho 17113" d="M456.583,153.932v-3.881c0-1.858-.815-2.3-1.565-2.3a4.332,4.332,0,0,0-2.446,1.239,6.331,6.331,0,0,1,.08,1.027v3.522c0,.88.147,1.19.637,1.517h-2.234l.1-1.126v-3.881c0-1.858-.815-2.3-1.565-2.3a4.219,4.219,0,0,0-2.364,1.174v4.615c0,.88.147,1.19.636,1.517h-2.233l.1-1.126v-6.261a2.553,2.553,0,0,0-.995-.294v-.065l2.576-.244-.082,1.207v.292a5.851,5.851,0,0,1,3.262-1.517,1.953,1.953,0,0,1,2.021,1.648v-.017c.881-.653,2.039-1.631,3.409-1.631.977,0,2.168.506,2.168,2.968v3.522c0,.88.147,1.19.636,1.517h-2.234Z" transform="translate(-341.26 -143.496)" fill="#00314b"/>
      <path id="Caminho_17114" data-name="Caminho 17114" d="M473.13,153.491a3.928,3.928,0,0,1-3.49,1.68,3.822,3.822,0,0,1-4.124-3.88,4.283,4.283,0,0,1,4.515-4.24c3.392,0,3.768,3.474,1.729,3.474H467.1c.015,2.234,1.287,3.93,3.245,3.93a3.712,3.712,0,0,0,2.707-1.028Zm-6.033-3.228,4.01-.048c.995-.017.457-2.87-1.662-2.87C468.124,147.345,467.179,148.421,467.1,150.264Z" transform="translate(-346.174 -143.496)" fill="#00314b"/>
      <path id="Caminho_17115" data-name="Caminho 17115" d="M478.247,154.083l.049-.978v-7.761c0-.685-.31-.62-1.37-.309v-.1l3-1.385-.13.668v2.1h1.972l-.082.391H479.8v7.223l1.972-.065v.065l-1.972.555h-.343Z" transform="translate(-348.871 -142.669)" fill="#00314b"/>
      <path id="Caminho_17116" data-name="Caminho 17116" d="M493.449,151.112a4.226,4.226,0,1,1-4.222-4.061A3.965,3.965,0,0,1,493.449,151.112Zm-1.533,1.059c0-2.25-1.3-4.842-3.326-4.842-1.288,0-2.055,1.026-2.055,2.722,0,2.251,1.305,4.844,3.327,4.844C491.149,154.895,491.916,153.867,491.916,152.171Z" transform="translate(-350.78 -143.496)" fill="#00314b"/>
      <path id="Caminho_17117" data-name="Caminho 17117" d="M322.256,171.232a6.142,6.142,0,1,1-6.13-5.935A5.795,5.795,0,0,1,322.256,171.232Zm-1.761.961c0-3.277-2.1-6.6-5.038-6.6-2.25,0-3.717,1.908-3.717,4.663,0,3.293,2.1,6.62,5.038,6.62C319.028,176.873,320.5,174.965,320.5,172.193Z" transform="translate(-309.408 -147.809)" fill="#00314b"/>
      <path id="Caminho_17118" data-name="Caminho 17118" d="M328.861,177.216l.913-1.517h.033c-.017,1.418,1.532,2.234,2.8,2.234,1.126,0,1.5-.636,1.5-1.4,0-1.077-.765-1.5-2.037-1.7-2.511-.391-3.016-1.6-3.016-2.478,0-1.452,1.37-2.3,3.1-2.3a4.9,4.9,0,0,1,2.967.93L334.1,172.52h-.033a2.363,2.363,0,0,0-2.495-2.218,1.246,1.246,0,0,0-1.37,1.353c0,1.158,1.126,1.484,2.152,1.646,2.463.392,2.9,1.5,2.9,2.365,0,1.451-1.239,2.511-3.261,2.511A5.259,5.259,0,0,1,328.861,177.216Z" transform="translate(-313.871 -148.935)" fill="#00314b"/>
      <path id="Caminho_17119" data-name="Caminho 17119" d="M340.167,177.089l.048-.978V168.35c0-.685-.309-.62-1.369-.309v-.1l3-1.385-.13.668v2.1h1.972l-.082.391h-1.891v7.223l1.972-.065v.065l-1.972.555h-.343Z" transform="translate(-316.231 -148.107)" fill="#00314b"/>
      <path id="Caminho_17120" data-name="Caminho 17120" d="M353.409,170.275l-1.4,2.282h-.065c.441-1.091.049-1.565-.473-1.565-.832,0-1.352,1.044-1.517,2.185v3.375c0,.88.147,1.19.636,1.517H348.37l.082-1.126v-6.261a2.553,2.553,0,0,0-.995-.294v-.065l2.577-.244-.082,1.206v.522h.212a2.516,2.516,0,0,1,2.38-1.728A1.9,1.9,0,0,1,353.409,170.275Z" transform="translate(-318.267 -148.94)" fill="#00314b"/>
      <path id="Caminho_17121" data-name="Caminho 17121" d="M365.245,174.118a4.226,4.226,0,1,1-4.222-4.061A3.965,3.965,0,0,1,365.245,174.118Zm-1.532,1.059c0-2.25-1.3-4.842-3.327-4.842-1.287,0-2.054,1.027-2.054,2.722,0,2.251,1.3,4.844,3.326,4.844C362.946,177.9,363.713,176.873,363.713,175.177Z" transform="translate(-320.475 -148.935)" fill="#00314b"/>
      <path id="Caminho_17122" data-name="Caminho 17122" d="M376.866,176.938v-3.881c0-1.858-.913-2.3-1.761-2.3a4.874,4.874,0,0,0-2.657,1.19v4.6c0,.88.147,1.19.635,1.517H370.85l.1-1.126v-6.261a2.561,2.561,0,0,0-1-.294v-.065l2.577-.244-.082,1.206v.311a6.76,6.76,0,0,1,3.587-1.533c1.06,0,2.332.506,2.332,2.968v3.522c0,.88.147,1.19.635,1.517h-2.234Z" transform="translate(-323.584 -148.935)" fill="#00314b"/>
      <path id="Caminho_17123" data-name="Caminho 17123" d="M392.69,174.118a4.226,4.226,0,1,1-4.222-4.061A3.965,3.965,0,0,1,392.69,174.118Zm-1.533,1.059c0-2.25-1.3-4.842-3.326-4.842-1.288,0-2.055,1.027-2.055,2.722,0,2.251,1.305,4.844,3.327,4.844C390.39,177.9,391.157,176.873,391.157,175.177Z" transform="translate(-326.963 -148.935)" fill="#00314b"/>
      <path id="Caminho_17124" data-name="Caminho 17124" d="M411.314,164.691l-1.3,1.142a4.444,4.444,0,0,0-2.8-1.386c-1.322,0-1.811,1.223-1.811,3.2v1.06h2.723l-.082.391H405.4v5.936c0,.88.115,1.337,1.092,1.516v.066h-2.853l.26-1.011v-6.506h-3.8v5.936c0,.88.114,1.337,1.093,1.516v.066h-2.854l.261-1.011v-5.788c0-.75-.473-.718-1.24-.718l.082-.391H398.6v-.228a4.349,4.349,0,0,1,4.6-4.24,5.8,5.8,0,0,1,2.4.587,4.993,4.993,0,0,1,2.919-.913A6.113,6.113,0,0,1,411.314,164.691ZM403.9,168.7v-.554a4.056,4.056,0,0,1,.62-2.2,4.467,4.467,0,0,0-2.609-1.174c-1.321,0-1.81,1.223-1.81,3.2v.734Z" transform="translate(-330.062 -147.481)" fill="#00314b"/>
      <path id="Caminho_17125" data-name="Caminho 17125" d="M321.753,189.53v9.555c0,.587.572.767,1.24.848v.082h-4.142v-.082c.669-.081,1.24-.26,1.24-.848v-9.636l-4.55,10.744-4.663-9.309v6.244c0,2.218.57,2.724,1.239,2.8v.082h-2.8v-.082c.669-.081,1.239-.26,1.239-2.479v-7.223a4.071,4.071,0,0,0-1.321-1.63h2.348l4.615,9.212,3.9-9.212h2.9v.082C322.325,188.764,321.753,188.944,321.753,189.53Z" transform="translate(-309.231 -153.318)" fill="#00314b"/>
      <path id="Caminho_17126" data-name="Caminho 17126" d="M337.812,201.216v.049l-2.544-.506a.016.016,0,0,0,.017-.016,4.125,4.125,0,0,1-1.94.44,3.617,3.617,0,0,1-3.93-3.75c0-2.348,1.663-4.37,5.054-4.37a5.8,5.8,0,0,1,2.707.6v6.065C337.176,200.613,337.322,200.89,337.812,201.216Zm-3.523-.489a1.671,1.671,0,0,0,1.354-.572,6.3,6.3,0,0,0,.033-.635v-5.25a2.653,2.653,0,0,0-2.022-.9c-1.679,0-2.657,1.255-2.657,3.18C331,198.885,332.414,200.727,334.289,200.727Z" transform="translate(-314.002 -154.373)" fill="#00314b"/>
      <path id="Caminho_17127" data-name="Caminho 17127" d="M345.777,199.621v.066H343.2l.147-1.011v-9.734c0-.652-.31-.571-1.32-.261v-.1l2.9-1.369-.082.635v10.256C344.848,198.985,344.963,199.443,345.777,199.621Z" transform="translate(-316.984 -152.99)" fill="#00314b"/>
      <path id="Caminho_17128" data-name="Caminho 17128" d="M357.458,201.216v.049l-2.544-.506a.016.016,0,0,0,.017-.016,4.123,4.123,0,0,1-1.94.44,3.617,3.617,0,0,1-3.93-3.75c0-2.348,1.663-4.37,5.054-4.37a5.8,5.8,0,0,1,2.707.6v6.065C356.821,200.613,356.967,200.89,357.458,201.216Zm-3.523-.489a1.674,1.674,0,0,0,1.355-.572c.015-.162.032-.374.032-.635v-5.25a2.652,2.652,0,0,0-2.022-.9c-1.679,0-2.657,1.255-2.657,3.18C350.641,198.885,352.06,200.727,353.934,200.727Z" transform="translate(-318.646 -154.373)" fill="#00314b"/>
      <path id="Caminho_17129" data-name="Caminho 17129" d="M370.413,193.667v8.249c0,.8-2.837,2.56-4.484,2.56a2.946,2.946,0,0,1-2.56-1.533l1.549-.456a2.246,2.246,0,0,0,2.169,1.435,1.934,1.934,0,0,0,1.826-2.022v-1.4a3.82,3.82,0,0,1-2.331.684,3.618,3.618,0,0,1-3.93-3.75c0-2.348,1.664-4.37,5.054-4.37A5.8,5.8,0,0,1,370.413,193.667Zm-1.5,6.424v-5.82a2.653,2.653,0,0,0-2.022-.9c-1.679,0-2.657,1.255-2.657,3.18,0,2.331,1.419,4.157,3.293,4.157A1.612,1.612,0,0,0,368.914,200.091Z" transform="translate(-321.859 -154.373)" fill="#00314b"/>
      <path id="Caminho_17130" data-name="Caminho 17130" d="M384.488,195.857a4.226,4.226,0,1,1-4.222-4.061A3.965,3.965,0,0,1,384.488,195.857Zm-1.533,1.059c0-2.25-1.3-4.842-3.326-4.842-1.288,0-2.055,1.027-2.055,2.722,0,2.251,1.305,4.844,3.327,4.844C382.188,199.64,382.955,198.612,382.955,196.916Zm-3.489-6.2,3.555-3.016.635.848-4.142,2.217Z" transform="translate(-325.024 -153.106)" fill="#00314b"/>
    </g>
    <g id="Grupo_6034" data-name="Grupo 6034" transform="translate(70.866 75.455)">
      <g id="Grupo_6025" data-name="Grupo 6025" transform="translate(39.172 0.967)">
        <path id="Caminho_17131" data-name="Caminho 17131" d="M131.964,110.239V79.693c0-1.878,1.824-2.45,3.961-2.712v-.26H122.164v.26c2.137.262,3.962.835,3.962,2.712v30.546c0,1.875-1.825,2.45-3.962,2.71v.26h13.761v-.26C133.788,112.689,131.964,112.114,131.964,110.239Z" transform="translate(-122.164 -76.721)" fill="#00314b"/>
      </g>
      <g id="Grupo_6026" data-name="Grupo 6026" transform="translate(50.903 21.661)">
        <rect id="Retângulo_2211" data-name="Retângulo 2211" width="15.381" height="0.885" fill="#00314b"/>
      </g>
      <g id="Grupo_6027" data-name="Grupo 6027" transform="translate(64.245 0.967)">
        <path id="Caminho_17132" data-name="Caminho 17132" d="M155,76.981c2.137.262,3.961.835,3.961,2.712v30.546c0,1.875-1.824,2.45-3.961,2.71v.26h13.76v-.26c-2.136-.26-3.961-.835-3.961-2.71V79.693c0-1.878,1.825-2.45,3.961-2.712v-.26H155Z" transform="translate(-154.999 -76.721)" fill="#00314b"/>
      </g>
      <g id="Grupo_6028" data-name="Grupo 6028" transform="translate(123.275 10.597)">
        <path id="Caminho_17133" data-name="Caminho 17133" d="M237.306,106.965V91.4l-1.042-2.065v18.676c0,7.087-1.825,7.662-3.962,7.923v.26h8.965v-.26C239.131,115.67,237.306,114.053,237.306,106.965Z" transform="translate(-232.302 -89.332)" fill="#00314b"/>
      </g>
      <g id="Grupo_6029" data-name="Grupo 6029" transform="translate(0 0.967)">
        <path id="Caminho_17134" data-name="Caminho 17134" d="M99.744,106.329l-6.411-8.757c6.411-1.617,10.268-5.839,10.268-11.208,0-6.517-5.368-9.644-14.022-9.644H70.866v.26c2.137.262,3.962.835,3.962,2.712v30.546c0,1.875-1.825,2.45-3.962,2.71v.26H84.627v-.26c-2.137-.26-3.962-.835-3.962-2.71V77.658h6.1c9.539,0,11.1,5.422,11.1,10.687,0,7.245-2.867,9.07-8.966,9.07H82.6V98.3h4.9l10.016,13.96a.733.733,0,0,1,.16.419.624.624,0,0,1-.115.314v.214h9.956v-.155C104.8,111.7,102.82,110.552,99.744,106.329Z" transform="translate(-70.866 -76.721)" fill="#00314b"/>
      </g>
      <g id="Grupo_6030" data-name="Grupo 6030" transform="translate(81.091)">
        <path id="Caminho_17135" data-name="Caminho 17135" d="M183.782,94.665c0-9.235,4.138-16.952,9.709-19.061v-.15a19.446,19.446,0,0,0,0,38.421v-.15C187.921,111.618,183.781,103.9,183.782,94.665Z" transform="translate(-177.059 -75.455)" fill="#00314b"/>
      </g>
      <g id="Grupo_6031" data-name="Grupo 6031" transform="translate(103.618)">
        <path id="Caminho_17136" data-name="Caminho 17136" d="M206.56,75.455v.15c5.57,2.108,9.709,9.825,9.709,19.061s-4.139,16.953-9.709,19.061v.15a19.446,19.446,0,0,0,0-38.421Z" transform="translate(-206.56 -75.455)" fill="#00314b"/>
      </g>
      <g id="Grupo_6032" data-name="Grupo 6032" transform="translate(153.77 0.967)">
        <path id="Caminho_17137" data-name="Caminho 17137" d="M286,76.981v-.26h-9.8l-.005,33.518c0,1.875-1.824,2.45-3.961,2.71v.26H286v-.26c-2.137-.26-3.962-.835-3.962-2.71V79.693C282.035,77.815,283.861,77.243,286,76.981Z" transform="translate(-272.236 -76.721)" fill="#00314b"/>
      </g>
      <g id="Grupo_6033" data-name="Grupo 6033" transform="translate(123.014 0.967)">
        <path id="Caminho_17138" data-name="Caminho 17138" d="M264.751,81.277,254.427,105.7,239.936,76.721H231.96a12.724,12.724,0,0,1,4.053,4.878c.057.11,16.12,32.185,16.12,32.185l12.618-29.8Z" transform="translate(-231.96 -76.721)" fill="#00314b"/>
      </g>
    </g>
    <g id="Grupo_6037" data-name="Grupo 6037" transform="translate(239.288 111.811)">
      <g id="Grupo_6035" data-name="Grupo 6035" transform="translate(5.763)">
        <rect id="Retângulo_2212" data-name="Retângulo 2212" width="2.81" height="14.335" fill="#eb640f"/>
      </g>
      <g id="Grupo_6036" data-name="Grupo 6036" transform="translate(0 5.763)">
        <rect id="Retângulo_2213" data-name="Retângulo 2213" width="14.335" height="2.81" fill="#eb640f"/>
      </g>
    </g>
  </g>
</svg>
